<svg width="1296" height="166" viewBox="0 0 1296 166" fill="none" xmlns="http://www.w3.org/2000/svg">
<path d="M0.589844 3.26504H55.5129C69.9464 3.26504 81.1133 6.98735 89.0138 14.432C97.0661 21.8766 101.092 32.056 101.092 44.9701C101.092 54.2379 98.8133 61.6066 94.2554 67.0761C89.6975 72.5456 83.5442 76.4199 75.7958 78.6988V79.8383C85.0636 81.9654 92.5082 86.0675 98.1296 92.1447C103.751 98.0701 106.562 106.502 106.562 117.441C106.562 123.974 105.498 129.976 103.371 135.445C101.244 140.915 98.2056 145.7 94.2554 149.803C90.3052 153.753 85.5193 156.867 79.8979 159.146C74.4284 161.273 68.3511 162.337 61.6662 162.337H0.589844V3.26504ZM53.9177 142.738C62.4258 142.738 68.9589 140.991 73.5168 137.496C78.0747 134.002 80.3537 128.38 80.3537 120.632V112.428C80.3537 104.679 78.0747 99.0576 73.5168 95.5632C68.9589 92.0688 62.4258 90.3216 53.9177 90.3216H25.6585V142.738H53.9177ZM50.2713 71.634C58.3237 71.634 64.4009 70.1147 68.5031 67.0761C72.7571 63.8856 74.8842 58.6439 74.8842 51.3512V43.147C74.8842 35.8543 72.7571 30.6886 68.5031 27.65C64.4009 24.4594 58.3237 22.8641 50.2713 22.8641H25.6585V71.634H50.2713Z" fill="#ECECEC"/>
<path d="M131.086 162.337V3.26504H230.676V24.6873H156.61V70.9504H227.942V92.3727H156.61V140.915H230.676V162.337H131.086Z" fill="#ECECEC"/>
<path d="M296.905 162.337V102.4L244.033 3.26504H272.52L292.803 42.9191L309.212 76.8757H310.579L327.216 42.9191L347.498 3.26504H375.302L322.43 102.4V162.337H296.905Z" fill="#ECECEC"/>
<path d="M439.48 165.072C429.452 165.072 420.716 163.249 413.272 159.602C405.979 155.804 399.902 150.41 395.04 143.422C390.33 136.433 386.836 127.849 384.557 117.669C382.278 107.49 381.138 95.8671 381.138 82.801C381.138 69.8868 382.278 58.3401 384.557 48.1607C386.836 37.8294 390.33 29.1693 395.04 22.1805C399.902 15.1916 405.979 9.87404 413.272 6.22769C420.716 2.42941 429.452 0.530273 439.48 0.530273C449.507 0.530273 458.167 2.42941 465.46 6.22769C472.905 9.87404 478.982 15.1916 483.692 22.1805C488.554 29.1693 492.124 37.8294 494.403 48.1607C496.682 58.3401 497.821 69.8868 497.821 82.801C497.821 95.8671 496.682 107.49 494.403 117.669C492.124 127.849 488.554 136.433 483.692 143.422C478.982 150.41 472.905 155.804 465.46 159.602C458.167 163.249 449.507 165.072 439.48 165.072ZM439.48 143.877C450.875 143.877 458.927 139.623 463.637 131.115C468.347 122.455 470.702 110.756 470.702 96.019V69.3551C470.702 54.7697 468.347 43.2229 463.637 34.7148C458.927 26.0547 450.875 21.7247 439.48 21.7247C428.085 21.7247 420.033 26.0547 415.323 34.7148C410.613 43.2229 408.258 54.7697 408.258 69.3551V96.2469C408.258 110.832 410.613 122.455 415.323 131.115C420.033 139.623 428.085 143.877 439.48 143.877Z" fill="#ECECEC"/>
<path d="M541.716 39.9564H539.665V162.337H517.331V3.26504H550.148L596.867 125.646H598.918V3.26504H621.252V162.337H588.435L541.716 39.9564Z" fill="#ECECEC"/>
<path d="M649.422 3.26504H696.825C717.184 3.26504 732.225 10.026 741.948 23.5478C751.824 37.0697 756.762 56.8208 756.762 82.801C756.762 108.781 751.824 128.532 741.948 142.054C732.225 155.576 717.184 162.337 696.825 162.337H649.422V3.26504ZM695.23 141.37C706.928 141.37 715.588 137.496 721.21 129.748C726.983 121.847 729.87 110.604 729.87 96.019V69.583C729.87 54.9976 726.983 43.8306 721.21 36.0822C715.588 28.1817 706.928 24.2315 695.23 24.2315H674.719V141.37H695.23Z" fill="#ECECEC"/>
<path d="M824.462 12.7208V67.3369H812.428V12.7208H792.989V2.72333H843.902V12.7208H824.462Z" fill="#ECECEC"/>
<path d="M854.789 67.3369V2.72333H895.612V12.7208H866.916V29.5685H894.594V39.566H866.916V57.3394H895.612V67.3369H854.789Z" fill="#ECECEC"/>
<path d="M932.974 68.4478C924.519 68.4478 918.256 65.5473 914.183 59.7462C910.171 53.9452 908.166 45.7065 908.166 35.0301C908.166 24.4155 910.171 16.2076 914.183 10.4066C918.256 4.54386 924.519 1.61249 932.974 1.61249C936.183 1.61249 938.991 2.04448 941.398 2.90846C943.867 3.77245 945.996 4.97585 947.785 6.51868C949.575 7.9998 951.056 9.82033 952.229 11.9803C953.401 14.0785 954.327 16.3928 955.006 18.923L943.897 22.0704C943.465 20.5893 942.972 19.2007 942.416 17.9047C941.861 16.6088 941.151 15.4979 940.287 14.5722C939.485 13.5848 938.467 12.8443 937.232 12.3506C935.998 11.7951 934.517 11.5174 932.789 11.5174C928.593 11.5174 925.569 13.122 923.717 16.3311C921.928 19.5401 921.033 23.9218 921.033 29.476V40.5843C921.033 46.1385 921.928 50.5201 923.717 53.7292C925.569 56.9383 928.593 58.5428 932.789 58.5428C934.517 58.5428 935.998 58.296 937.232 57.8023C938.467 57.2468 939.485 56.5063 940.287 55.5806C941.151 54.5932 941.861 53.4515 942.416 52.1555C942.972 50.8595 943.465 49.471 943.897 47.9899L955.006 51.1372C954.327 53.6675 953.401 56.0126 952.229 58.1725C951.056 60.2708 949.575 62.0913 947.785 63.6342C945.996 65.1153 943.867 66.2878 941.398 67.1518C938.991 68.0158 936.183 68.4478 932.974 68.4478Z" fill="#ECECEC"/>
<path d="M997.181 39.566H978.297V67.3369H966.171V2.72333H978.297V29.5685H997.181V2.72333H1009.31V67.3369H997.181V39.566Z" fill="#ECECEC"/>
<path d="M1033.9 20.9595H1032.97V67.3369H1022.6V2.72333H1037.51L1054.45 49.1007H1055.37V2.72333H1065.74V67.3369H1050.84L1033.9 20.9595Z" fill="#ECECEC"/>
<path d="M1080.05 67.3369V58.2651H1094.58V11.7952H1080.05V2.72333H1121.15V11.7952H1106.62V58.2651H1121.15V67.3369H1080.05Z" fill="#ECECEC"/>
<path d="M1158.7 68.4478C1150.24 68.4478 1143.98 65.5473 1139.91 59.7462C1135.9 53.9452 1133.89 45.7065 1133.89 35.0301C1133.89 24.4155 1135.9 16.2076 1139.91 10.4066C1143.98 4.54386 1150.24 1.61249 1158.7 1.61249C1161.91 1.61249 1164.72 2.04448 1167.12 2.90846C1169.59 3.77245 1171.72 4.97585 1173.51 6.51868C1175.3 7.9998 1176.78 9.82033 1177.95 11.9803C1179.13 14.0785 1180.05 16.3928 1180.73 18.923L1169.62 22.0704C1169.19 20.5893 1168.7 19.2007 1168.14 17.9047C1167.59 16.6088 1166.88 15.4979 1166.01 14.5722C1165.21 13.5848 1164.19 12.8443 1162.96 12.3506C1161.72 11.7951 1160.24 11.5174 1158.51 11.5174C1154.32 11.5174 1151.29 13.122 1149.44 16.3311C1147.65 19.5401 1146.76 23.9218 1146.76 29.476V40.5843C1146.76 46.1385 1147.65 50.5201 1149.44 53.7292C1151.29 56.9383 1154.32 58.5428 1158.51 58.5428C1160.24 58.5428 1161.72 58.296 1162.96 57.8023C1164.19 57.2468 1165.21 56.5063 1166.01 55.5806C1166.88 54.5932 1167.59 53.4515 1168.14 52.1555C1168.7 50.8595 1169.19 49.471 1169.62 47.9899L1180.73 51.1372C1180.05 53.6675 1179.13 56.0126 1177.95 58.1725C1176.78 60.2708 1175.3 62.0913 1173.51 63.6342C1171.72 65.1153 1169.59 66.2878 1167.12 67.1518C1164.72 68.0158 1161.91 68.4478 1158.7 68.4478Z" fill="#ECECEC"/>
<path d="M1227.26 67.3369L1222.72 50.9521H1203.56L1199.12 67.3369H1186.9L1205.04 2.72333H1221.89L1240.12 67.3369H1227.26ZM1213.56 14.6648H1212.82L1205.69 41.0472H1220.68L1213.56 14.6648Z" fill="#ECECEC"/>
<path d="M1251.38 67.3369V2.72333H1263.51V57.3394H1292.11V67.3369H1251.38Z" fill="#ECECEC"/>
<path d="M797.895 162.126V153.054H812.428V106.584H797.895V97.5124H838.996V106.584H824.462V153.054H838.996V162.126H797.895Z" fill="#ECECEC"/>
<path d="M864.601 115.749H863.676V162.126H853.308V97.5124H868.212L885.152 143.89H886.078V97.5124H896.445V162.126H881.542L864.601 115.749Z" fill="#ECECEC"/>
<path d="M937.325 107.51V162.126H925.291V107.51H905.851V97.5124H956.765V107.51H937.325Z" fill="#ECECEC"/>
<path d="M967.652 162.126V97.5124H1008.47V107.51H979.778V124.358H1007.46V134.355H979.778V152.128H1008.47V162.126H967.652Z" fill="#ECECEC"/>
<path d="M1035.93 162.126H1023.81V97.5124H1048.34C1054.63 97.5124 1059.44 99.3021 1062.78 102.881C1066.11 106.461 1067.78 111.336 1067.78 117.507C1067.78 122.259 1066.67 126.271 1064.44 129.541C1062.28 132.751 1059.17 134.787 1055.09 135.651L1068.89 162.126H1055.56L1043.24 137.04H1035.93V162.126ZM1045.84 127.598C1049.11 127.598 1051.45 126.95 1052.87 125.654C1054.29 124.296 1055 122.167 1055 119.266V115.749C1055 112.848 1054.29 110.75 1052.87 109.454C1051.45 108.096 1049.11 107.417 1045.84 107.417H1035.93V127.598H1045.84Z" fill="#ECECEC"/>
<path d="M1092.09 162.126L1074.4 97.5124H1087.73L1095.79 130.189L1100.51 150.555H1101.16L1105.97 130.189L1114.12 97.5124H1126.8L1109.12 162.126H1092.09Z" fill="#ECECEC"/>
<path d="M1136.48 162.126V153.054H1151.02V106.584H1136.48V97.5124H1177.58V106.584H1163.05V153.054H1177.58V162.126H1136.48Z" fill="#ECECEC"/>
<path d="M1193.38 162.126V97.5124H1234.2V107.51H1205.5V124.358H1233.18V134.355H1205.5V152.128H1234.2V162.126H1193.38Z" fill="#ECECEC"/>
<path d="M1248.14 162.126L1243.79 97.5124H1254.25L1257.12 150.092H1257.95L1264.43 112.416H1275.73L1282.21 150.092H1283.04L1285.91 97.5124H1296L1291.65 162.126H1276.01L1270.27 125.561H1269.53L1263.79 162.126H1248.14Z" fill="#ECECEC"/>
</svg>
