<svg width="848" height="500" viewBox="0 0 848 500" fill="none" xmlns="http://www.w3.org/2000/svg">
<path fill-rule="evenodd" clip-rule="evenodd" d="M231.502 465.265L34 267.763L34 34.2652L814 34.2651V465.265L231.502 465.265ZM804 455.265L235.644 455.265L234.461 454.082L234.461 265.421L45.8004 265.421L44 263.621L44 44.2652L804 44.2651V455.265Z" fill="black"/>
<path fill-rule="evenodd" clip-rule="evenodd" d="M77.6636 80.0673H128.464C141.814 80.0673 152.143 83.5102 159.45 90.396C166.898 97.2818 170.622 106.697 170.622 118.642C170.622 127.214 168.514 134.03 164.298 139.089C160.082 144.147 154.391 147.731 147.224 149.839V150.893C155.796 152.86 162.682 156.654 167.882 162.275C173.081 167.756 175.681 175.555 175.681 185.673C175.681 191.716 174.697 197.267 172.73 202.326C170.762 207.384 167.952 211.811 164.298 215.605C160.645 219.259 156.218 222.14 151.018 224.248C145.96 226.215 140.338 227.199 134.155 227.199H77.6636V80.0673ZM126.988 209.071C134.858 209.071 140.901 207.455 145.116 204.223C149.332 200.991 151.44 195.791 151.44 188.624V181.036C151.44 173.869 149.332 168.669 145.116 165.437C140.901 162.205 134.858 160.589 126.988 160.589H100.85V209.071H126.988ZM123.616 143.304C131.064 143.304 136.685 141.899 140.479 139.089C144.414 136.137 146.381 131.289 146.381 124.544V116.956C146.381 110.21 144.414 105.432 140.479 102.622C136.685 99.6708 131.064 98.1953 123.616 98.1953H100.85V143.304H123.616Z" fill="black"/>
<path d="M198.364 227.199V80.0673H290.479V99.8816H221.972V142.672H287.95V162.486H221.972V207.384H290.479V227.199H198.364Z" fill="black"/>
<path d="M351.737 227.199V171.761L302.833 80.0673H329.182L347.942 116.745L363.119 148.152H364.384L379.772 116.745L398.532 80.0673H424.248L375.345 171.761V227.199H351.737Z" fill="black"/>
<path fill-rule="evenodd" clip-rule="evenodd" d="M483.609 229.728C474.334 229.728 466.254 228.042 459.368 224.669C452.623 221.156 447.002 216.167 442.505 209.703C438.148 203.239 434.916 195.299 432.808 185.884C430.701 176.469 429.647 165.718 429.647 153.633C429.647 141.688 430.701 131.008 432.808 121.593C434.916 112.037 438.148 104.027 442.505 97.5629C447.002 91.0987 452.623 86.1802 459.368 82.8076C466.254 79.2944 474.334 77.5379 483.609 77.5379C492.884 77.5379 500.894 79.2944 507.639 82.8076C514.525 86.1802 520.146 91.0987 524.502 97.5629C528.999 104.027 532.301 112.037 534.409 121.593C536.517 131.008 537.571 141.688 537.571 153.633C537.571 165.718 536.517 176.469 534.409 185.884C532.301 195.299 528.999 203.239 524.502 209.703C520.146 216.167 514.525 221.156 507.639 224.669C500.894 228.042 492.884 229.728 483.609 229.728ZM483.609 210.125C494.148 210.125 501.596 206.19 505.953 198.321C510.309 190.31 512.487 179.49 512.487 165.859V141.196C512.487 127.706 510.309 117.026 505.953 109.156C501.596 101.146 494.148 97.1413 483.609 97.1413C473.069 97.1413 465.621 101.146 461.265 109.156C456.909 117.026 454.731 127.706 454.731 141.196V166.07C454.731 179.56 456.909 190.31 461.265 198.321C465.621 206.19 473.069 210.125 483.609 210.125Z" fill="black"/>
<path d="M578.171 114.005H576.274V227.199H555.617V80.0673H585.97L629.182 193.262H631.079V80.0673H651.737V227.199H621.383L578.171 114.005Z" fill="black"/>
<path fill-rule="evenodd" clip-rule="evenodd" d="M677.792 80.0673H721.637C740.467 80.0673 754.38 86.3208 763.373 98.8276C772.507 111.335 777.075 129.603 777.075 153.633C777.075 177.663 772.507 195.932 763.373 208.438C754.38 220.945 740.467 227.199 721.637 227.199H677.792V80.0673ZM720.161 207.806C730.982 207.806 738.992 204.223 744.191 197.056C749.531 189.748 752.201 179.349 752.201 165.859V141.407C752.201 127.917 749.531 117.588 744.191 110.421C738.992 103.114 730.982 99.46 720.161 99.46H701.19V207.806H720.161Z" fill="black"/>
<path d="M301.636 277.313V331.929H289.602V277.313H270.162V267.316H321.075V277.313H301.636Z" fill="black"/>
<path d="M331.962 331.929V267.316H372.785V277.313H344.089V294.161H371.767V304.158H344.089V321.932H372.785V331.929H331.962Z" fill="black"/>
<path d="M410.147 333.04C401.693 333.04 395.429 330.14 391.356 324.339C387.344 318.537 385.339 310.299 385.339 299.622C385.339 289.008 387.344 280.8 391.356 274.999C395.429 269.136 401.693 266.205 410.147 266.205C413.357 266.205 416.164 266.637 418.571 267.501C421.04 268.365 423.169 269.568 424.959 271.111C426.748 272.592 428.229 274.413 429.402 276.573C430.574 278.671 431.5 280.985 432.179 283.515L421.071 286.663C420.639 285.182 420.145 283.793 419.59 282.497C419.034 281.201 418.324 280.09 417.46 279.165C416.658 278.177 415.64 277.437 414.406 276.943C413.171 276.387 411.69 276.11 409.962 276.11C405.766 276.11 402.742 277.714 400.89 280.923C399.101 284.132 398.206 288.514 398.206 294.068V305.177C398.206 310.731 399.101 315.112 400.89 318.321C402.742 321.531 405.766 323.135 409.962 323.135C411.69 323.135 413.171 322.888 414.406 322.395C415.64 321.839 416.658 321.099 417.46 320.173C418.324 319.185 419.034 318.044 419.59 316.748C420.145 315.452 420.639 314.063 421.071 312.582L432.179 315.73C431.5 318.26 430.574 320.605 429.402 322.765C428.229 324.863 426.748 326.684 424.959 328.226C423.169 329.708 421.04 330.88 418.571 331.744C416.164 332.608 413.357 333.04 410.147 333.04Z" fill="black"/>
<path d="M474.355 304.158H455.47V331.929H443.344V267.316H455.47V294.161H474.355V267.316H486.481V331.929H474.355V304.158Z" fill="black"/>
<path d="M511.069 285.552H510.143V331.929H499.775V267.316H514.679L531.619 313.693H532.545V267.316H542.913V331.929H528.009L511.069 285.552Z" fill="black"/>
<path d="M557.225 331.929V322.857H571.758V276.387H557.225V267.316H598.326V276.387H583.792V322.857H598.326V331.929H557.225Z" fill="black"/>
<path d="M635.873 333.04C627.418 333.04 621.154 330.14 617.081 324.339C613.07 318.537 611.064 310.299 611.064 299.622C611.064 289.008 613.07 280.8 617.081 274.999C621.154 269.136 627.418 266.205 635.873 266.205C639.082 266.205 641.89 266.637 644.297 267.501C646.765 268.365 648.894 269.568 650.684 271.111C652.474 272.592 653.955 274.413 655.127 276.573C656.3 278.671 657.225 280.985 657.904 283.515L646.796 286.663C646.364 285.182 645.87 283.793 645.315 282.497C644.759 281.201 644.05 280.09 643.186 279.165C642.383 278.177 641.365 277.437 640.131 276.943C638.897 276.387 637.416 276.11 635.688 276.11C631.491 276.11 628.467 277.714 626.616 280.923C624.826 284.132 623.931 288.514 623.931 294.068V305.177C623.931 310.731 624.826 315.112 626.616 318.321C628.467 321.531 631.491 323.135 635.688 323.135C637.416 323.135 638.897 322.888 640.131 322.395C641.365 321.839 642.383 321.099 643.186 320.173C644.05 319.185 644.759 318.044 645.315 316.748C645.87 315.452 646.364 314.063 646.796 312.582L657.904 315.73C657.225 318.26 656.3 320.605 655.127 322.765C653.955 324.863 652.474 326.684 650.684 328.226C648.894 329.708 646.765 330.88 644.297 331.744C641.89 332.608 639.082 333.04 635.873 333.04Z" fill="black"/>
<path fill-rule="evenodd" clip-rule="evenodd" d="M704.431 331.929L699.895 315.544H680.733L676.289 331.929H664.07L682.214 267.316H699.062L717.298 331.929H704.431ZM690.73 279.257H689.99L682.862 305.639H697.858L690.73 279.257Z" fill="black"/>
<path d="M728.555 267.316H740.682V321.932H769.286V331.929H728.555V267.316Z" fill="black"/>
<path d="M275.068 417.646V426.718H316.169V417.646H301.636V371.176H316.169V362.105H275.068V371.176H289.602V417.646H275.068Z" fill="black"/>
<path d="M340.849 380.341H341.775L358.715 426.718H373.619V362.105H363.251V408.482H362.325L345.385 362.105H330.481V426.718H340.849V380.341Z" fill="black"/>
<path d="M414.498 426.718V372.102H433.938V362.105H383.025V372.102H402.464V426.718H414.498Z" fill="black"/>
<path d="M444.825 362.105V426.718H485.648V416.721H456.952V398.947H484.63V388.95H456.952V372.102H485.648V362.105H444.825Z" fill="black"/>
<path fill-rule="evenodd" clip-rule="evenodd" d="M500.979 426.718H513.105V401.632H520.418L532.73 426.718H546.06L532.267 400.243C536.34 399.379 539.457 397.343 541.617 394.134C543.838 390.863 544.949 386.852 544.949 382.1C544.949 375.928 543.283 371.053 539.95 367.474C536.618 363.894 531.804 362.105 525.509 362.105H500.979V426.718ZM530.045 390.246C528.626 391.542 526.281 392.19 523.01 392.19H513.105V372.01H523.01C526.281 372.01 528.626 372.688 530.045 374.046C531.465 375.342 532.174 377.44 532.174 380.341V383.859C532.174 386.759 531.465 388.888 530.045 390.246Z" fill="black"/>
<path d="M551.578 362.105L569.259 426.718H586.292L603.972 362.105H591.29L583.144 394.782L578.331 415.147H577.683L572.962 394.782L564.908 362.105H551.578Z" fill="black"/>
<path d="M613.656 417.646V426.718H654.757V417.646H640.224V371.176H654.757V362.105H613.656V371.176H628.189V417.646H613.656Z" fill="black"/>
<path d="M670.55 362.105V426.718H711.373V416.721H682.677V398.947H710.355V388.95H682.677V372.102H711.373V362.105H670.55Z" fill="black"/>
<path d="M720.964 362.105L725.315 426.718H740.96L746.699 390.153H747.439L753.179 426.718H768.823L773.174 362.105H763.084L760.214 414.684H759.381L752.901 377.008H741.608L735.128 414.684H734.295L731.425 362.105H720.964Z" fill="black"/>
</svg>
